<?xml version="1.0" encoding="UTF-8"?>
<svg id="_레이어_1" data-name="레이어 1" xmlns="http://www.w3.org/2000/svg" viewBox="0 0 300 300">
  <path d="M222.96,82.54c-.39-.49-6.46-4.54-9.48-4.7-1.6-1.46-3.23-3.7-5.96-3.15-1.88-1.9-4.4-2.85-7.42-2.59-1.47-1.58-3.31-1.92-5.2-.42-1.4-1.6-3.48-.7-4.81-1.01-2.82-.65-5.27-.13-8.1-.26-2.98-.13-5.02.49-7.84.86l-4.41.57c-2.94.38-5.28.82-7.6,2.99l-3.45,1.97-2.45.77c-3.56,3.46-6.59,7.33-9.54,11.18l-.62,2.77c.23,3.41-1.06,9.78-2.1,11.62-.84,1.48-2.64.72-3.91,1.33-2.61,1.24-5.23,1.95-7.04-.89-.79-1.25-2.38-1.23-3.4-1.91-5.71-3.8-9.82-3.48-12.79-4.25-3.81-.99-6.99-.52-10.79.09-2.63.42-4.42.72-6.92,1.82l-12.19,5.39c-2.34,1.04-3.34,4.22-5.91,5.07s-3.7,3.77-5.29,5.53c-1.34,1.48-1.46,3.08-2.38,4.5-2.15,3.3-4.89,6.85-4.24,11.23,2.29-.13,5.2-1.01,7.32-.1,1.79.77,3.18.74,5.07,1.05,1.42.23,6.03,3.56,10.47,5.75,1.02.5,1.99,2.03,3.1,2.76,1.51,1,1.06,3.56,1.57,4.94l1.13,3.06c.47,1.28.44,2.39,1.04,3.47-.8.41-1.11,1.1-1.04,1.65s.43,1.13,1.12,1.62c-1.8,1.94-.07,5.8-2.51,9.6l-2.53,1.83c-.85,1.52-1.36,3.73-3.08,4.36-.9.33-1.88,1.07-2.51,1.45-1.75.3-3.31.83-5.14,1.49-2.86,1.03-7.02.2-10.52.07l-4.17-1.52c-2.21-3.8-4.55-2.05-8.38-8.89-1.11-1.98-.82-4.52-2.73-6.45-.84-.85-.6-5.22-2.68-5.35s-1.95,3.71-5.79,5.86l-1.37,4.09c-1.59,2.07-4.01,4.04-4.09,6.54-.22,7.09-1.4,14.34,4.01,19.64-.34.46-.56.74-.62,1.14-.17,1.19,5.36,7.77,9.25,7.71,2.14,2.83,7.04,4.8,11.05,5.59,1.41.28,2.81.95,4.33,1.15,2.71.35,8.01.24,10.73-.18,3.29-.52,4.39,6.85,3.51,8.68-.94,1.94-4.07,3.46-7.42,6.53-1.37,1.26-1.99,2.94-3.58,4.19-.69.55-.73,2.29-1.25,2.96-1.38,1.81-1.54,3.63-2.2,5.63-.86,2.62-2.03,5.09-2.33,7.75-1.64,2.38-3.85,3.61-6.4,2.55-1.71-2.47-1.41-5.41-1.57-8.18-.14-2.56,1.03-3.84,1.85-5.85,1.52-3.71,1.74-7.79,3.58-11.57-5.17.13-9.28-2.55-12.09-3.02-2.62-.44-3.5-1.73-5.25-3.19-2-1.67-4.61-3.04-6.93-4.57-1.56-1.03-3.84-1.01-3.89-3.7-.03-1.53-1.92-2.04-2.39-2.85l-4.42-9.87c-1.58-3.53-1.32-7.16-2.18-10.86l.38-7.25c-.93-1.06-.11-1.95-.11-2.77.01-4.11,1.61-7.02,3.32-10.52,1.17-2.41,2.26-4.26,3.87-6.4,1.78-2.36,2.7-5.05,4.96-7.17,2.09-1.95,3.51-4.86,6.32-5.9,1.71-.63,4.54-1.45,5.19-3.27l1.86-5.26c-.13-3.18-.14-5.79,1.74-8.36.81-1.11.76-3.41,1.73-4.25,2.91-2.54,3.02-6.15,4.65-9.23.84-1.59,3.44-2.58,4.16-4.42,1.01-2.56,3.19-3.18,5.13-4.8,1.52-1.27,2.38-4.61,4.67-4.86,2.69-.3,3.77-1.65,5.82-3.14,1.16-.84,5.73-1.85,8.3-4.4l7.63-.95c5.15-2.16,10.99-2.5,16.46-1.92l4.62.49,5.68.8c2.57,1.71,5.07,3.16,8.26,2.46-.52-4.31,1.78-7.88,4.85-10.52.96-.83,1.47-2.01,2.62-2.77,1.36-.9,1.59-3.35,2.38-4.56,2.42-.31,3.75-2.24,5.57-3.11,1.62-.77,3.43-2.06,4.56-2.95,2.92-.46,4.49-1.7,6.55-3.4,3.72.38,6.41-.9,9.98-2.16,3.97.28,7.59-1.07,10.53-.52,3.19.6,7.96-.6,11.35-.09,2.58.38,4.66.4,7.19.54,2.94.16,5.97,1.46,8.9,1.84,3.49.45,6.34,2.12,9.43,3.39,1.33.55,2.18.48,3.53,1.54s2.98,2.65,4.38,3.63c3.36,1.18,6.97,2.1,8.9,5.55,2.38.76,4.05,2.59,5.36,4.87,3.61,1.86,7.97,8.49,8.56,12.16l2.47,3.82c.22,2.77.67,4.95,2.03,7.28,1.68,2.88.81,6.36,1.46,9.46l-.19,3.55c-.09,1.58.21,1.87,0,3.29-1.14,7.71-3.87,14.92-8.47,21.09.08,2.2,2.91,2.42,4.19,3.01.95.44,5.07,3.73,7.64,5.82,3.81,3.1,8.52,10.71,10.36,15.35,2.35,5.92,3.35,12.45,2.73,18.49l-.8,7.81c-.15,1.49-.28,1.81-.83,3.07-.81,1.85-.47,3.93-1.61,5.64-2.16,3.23-3.77,6.78-6.61,9.63l-4.01,3.07c-2.27,3.13-4.82,5.82-8.47,7.28l-9.8,3.9c-2.58-.66-4.99-.34-7.24.96-3.51-.48-6.91-.41-10.29.49-.98-.32-2.48-1-3.55-.84-3.23.48-5.32-1.21-7.92-2.38-1.44-.65-3.42-.28-4.53-2.26l-3.56,4.04c-2.39,2.71-5.41,4.37-8.34,6.38-1.62,1.11-3.56,1.08-5.14,1.94-1.89,1.02-3.2,1.73-5.13,2.15l-6.66,1.45c-2.73.59-5.02,1.51-7.93.98-1.06.02-2.65,1.49-4.17,1.08-2.08-.55-4.24.29-6.21.3-5.49.03-10.46-.47-15.62-1.4-1.94-.35-3.84-.46-5.47-2.19-3.08.17-5.73-.76-7.69-3.13-2.84.23-4.99-1.04-6.79-3.02-3.66-.9-3.78-3.93-6.75-4.03-1.85-1.54-4.37-.96-5.77.9-2.18-.42-4.05.65-5.36,2.5-3.33.86-5.76,2.68-8.5,4.46-3.08,2.01-6.27,4-7.85,7.51-2.21,4.92-5.84,6.74-7.73,4.86-.5-.5-.67-1.47-.45-2.67l1.15-6.13c.37-1.96,1.05-4.28,2-5.98l3.99-7.07c.68-1.2,2.22-3.18,3.48-3.92l13.02-7.67c3.08-1.82,6.45-2.24,9.73-2.84,2.51-.46,3.8-.79,5.61,1.51.5.64,2,1.11,2.34,2.44.46,1.83,2.11,2.72,3.95,2.32l2.84,3.31c3.59.11,6.12,1.95,8.99,3.49,2.53,1.36,10.72,3.49,13.56,3.41l13.96-.39c2.02-.06,3.53-.93,5.31-1.13l6.14-.67c5.86-2.5,9.1-2.38,13.88-6.58,1.66-1.46,4.53-2.86,4.54-5.68.01-2.6.76-4.04,3.2-5.09,2.22-.96,4.92-2.31,7.4-.91l4.27,3.7c2.3-.21,4.16.42,6.16,1.66l4.18.61c3.96,1.67,11.03.57,15.18-1.1,1.54-.62,3.79-.32,5.26-1.84l3.35-.43c2.35-1.26,5.5-5.95,7.93-9,2.47-1.43,4.22-3.5,3.45-6.56,2.72-.18,1.59-2.74,2.34-7.38l.87-1.65c.17-.33-.45-.93-1.04-1.31,1.07-1.63.82-3.33-.43-4.74.55-1.15-.74-4.97-.71-4.93l-3.45-5.64c-1.07-1.75-2.02-2.9-3.1-4.78-.75-1.29-2.98-2.8-4.29-3.54l-4.85-2.72c-2.53-1.42-5.92.47-8.54.8l-3.16.39c-1.04.13-2.54-.44-3.55-.5-3.07-.18-2.82-3.48-3.41-5.4-.71-2.32-.96-3.82.59-5.86,2.57-3.37,5.78-2.1,10.25-8.78.87-1.3.38-3.67,2.02-4.58,2.28-1.26,2.85-1.92,2.5-4.62,1.18-.98,1.1-2,1.42-3.12,2.4-8.25,2.2-13.58-1.46-21.19l-4.5-9.35c-.62-1.29-2.66-3.01-3.74-3.72-2.14-1.39-3.76-2.01-5.57-4.27ZM82.61,158.65c2.19-2.25,2.45-6.29.43-9.08-1.41-1.94-4.65-2.43-6.57-4.13-1.26-1.11-2.85-1.05-3.97.01-1.54-.61-3.04-.58-4.28.02l1.37,3.54c1.73,2.93,2.77,5.93,3.74,9.17,3.35,2.39,6.52,3.3,9.28.47Z"/>
  <g>
    <path d="M165.47,162.17c-6.18-1.54-12.41-7.67-10.44-13.83,2.25-1.06,4.89-.07,6.27,2.25,1.13,1.92,6.37,4.58,9.58,6.25,4.14,2.15,9.76,2.28,13.76-.28,2.3-1.47,5.43-2.36,6.96-5.04.75-1.31,1.15-3.45,2.78-4.15,1.35-.58,3.18-.5,4.75-.32.88,3.37.49,7.5-2.1,9.96-1.16,1.1-2.19,2.72-3.65,3.45l-4.95,2.5c-3.63,2.6-7.51,2.92-11.67,2.64s-8.14-.61-11.29-3.43Z"/>
    <path d="M169.35,145.96c-1-.01-2.13.03-2.84-.35-2.91-1.56-2.26-10.62-.32-16.05,2.38-.8,4.84-1.36,7.05-.07.66.52,1.65,2.17,1.74,3,.37,6.4.15,13.53-5.63,13.47Z"/>
    <path d="M190.26,144.71c-1.14,3.02-6.32,1.35-7.27.22s-1.3-2.2-1.23-3.71l.36-7.34c.07-1.43,1.25-3.32,2.71-3.57,3.54-.6,5.98,2.14,6.49,5.47.45,2.95-.01,6.13-1.06,8.91Z"/>
  </g>
</svg>